<svg width="780" height="242" viewBox="0 0 780 242" fill="none" xmlns="http://www.w3.org/2000/svg">
<path d="M379.166 64.2151L380.293 66.7467L367.666 72.3659L357.761 50.1093L360.759 48.7753L369.537 68.5003L379.166 64.2151Z" fill="white"/>
<path d="M392.567 50.9667C392.324 50.3074 392.006 49.7418 391.615 49.2701C391.231 48.7838 390.785 48.4105 390.278 48.1504C389.778 47.8756 389.234 47.726 388.645 47.7015C388.053 47.6664 387.432 47.7683 386.783 48.0075C385.422 48.5092 384.49 49.3059 383.986 50.3974C383.489 51.4744 383.404 52.75 383.73 54.2243L392.567 50.9667ZM397.657 57.6965C397.463 58.2512 397.18 58.7782 396.808 59.2776C396.433 59.7663 396 60.2155 395.511 60.6253C395.033 61.0312 394.513 61.3918 393.953 61.707C393.397 62.0329 392.826 62.3036 392.242 62.5192C391.125 62.9308 390.025 63.125 388.941 63.1017C387.864 63.0638 386.847 62.8108 385.889 62.3425C384.938 61.8596 384.073 61.1518 383.295 60.2189C382.516 59.286 381.87 58.123 381.356 56.73C380.941 55.6028 380.723 54.4874 380.702 53.3836C380.693 52.2759 380.881 51.2463 381.267 50.2947C381.649 49.3325 382.233 48.4769 383.02 47.7278C383.803 46.9681 384.779 46.3727 385.949 45.9415C386.917 45.5847 387.871 45.4203 388.811 45.4481C389.758 45.4613 390.643 45.6666 391.466 46.0638C392.295 46.4465 393.047 47.027 393.72 47.8054C394.39 48.5732 394.937 49.5314 395.36 50.6798C395.525 51.1264 395.586 51.4418 395.546 51.626C395.505 51.8101 395.351 51.9512 395.086 52.0492L384.287 56.0301C384.695 57.0391 385.161 57.8761 385.684 58.5409C386.217 59.2019 386.801 59.7052 387.436 60.051C388.067 60.3861 388.738 60.5676 389.449 60.5955C390.156 60.6127 390.892 60.4802 391.658 60.1979C392.37 59.9353 392.952 59.6301 393.404 59.2824C393.862 58.9202 394.242 58.5748 394.544 58.2462C394.845 57.9176 395.089 57.6284 395.275 57.3788C395.467 57.1145 395.654 56.9491 395.835 56.8825C396.069 56.7962 396.283 56.82 396.477 56.9537L397.657 57.6965Z" fill="white"/>
<path d="M410.971 48.0659C409.648 48.5068 408.54 48.9547 407.646 49.4096C406.761 49.8504 406.06 50.2955 405.543 50.7448C405.037 51.1908 404.703 51.6389 404.542 52.089C404.391 52.5359 404.383 52.9875 404.519 53.4437C404.648 53.8782 404.83 54.232 405.065 54.505C405.3 54.778 405.568 54.9822 405.868 55.1175C406.176 55.2387 406.507 55.2998 406.862 55.3006C407.225 55.2874 407.596 55.2242 407.977 55.1111C408.487 54.9592 408.94 54.7714 409.334 54.5476C409.726 54.313 410.077 54.043 410.388 53.7376C410.71 53.429 410.999 53.0888 411.255 52.7171C411.522 52.3421 411.767 51.9323 411.989 51.4878L410.971 48.0659ZM399.596 44.1068C400.246 42.9555 401.034 42.0059 401.958 41.2579C402.883 40.51 403.986 39.9454 405.268 39.5641C406.191 39.2895 407.057 39.1976 407.864 39.2886C408.672 39.3795 409.4 39.6238 410.051 40.0216C410.701 40.4193 411.266 40.9667 411.745 41.6636C412.225 42.3606 412.601 43.1707 412.876 44.0941L416.017 54.6529L414.729 55.0358C414.447 55.1198 414.217 55.141 414.039 55.0993C413.858 55.0468 413.683 54.8977 413.516 54.6519L412.724 53.1846C412.409 53.7158 412.092 54.2003 411.773 54.6381C411.451 55.065 411.094 55.455 410.702 55.8079C410.308 56.15 409.866 56.4529 409.376 56.7167C408.901 56.988 408.349 57.2174 407.719 57.4048C407.078 57.5954 406.449 57.6878 405.833 57.682C405.213 57.6654 404.638 57.5408 404.107 57.3083C403.588 57.0726 403.123 56.7204 402.711 56.2515C402.307 55.7686 401.994 55.1524 401.771 54.4028C401.577 53.751 401.571 53.0731 401.752 52.369C401.929 51.6541 402.35 50.9435 403.015 50.2373C403.68 49.5311 404.615 48.8391 405.821 48.1613C407.023 47.4726 408.557 46.8271 410.424 46.2247L410.041 44.9374C409.66 43.6556 409.095 42.7711 408.347 42.2841C407.596 41.7863 406.688 41.6957 405.624 42.0123C404.907 42.2256 404.331 42.4972 403.897 42.8273C403.471 43.1433 403.113 43.4686 402.822 43.8034C402.539 44.124 402.295 44.4155 402.089 44.6777C401.891 44.9258 401.667 45.087 401.417 45.1613C401.221 45.2195 401.038 45.2207 400.868 45.1649C400.695 45.0983 400.536 45.0035 400.393 44.8805L399.596 44.1068Z" fill="white"/>
<path d="M422.309 38.9232C422.567 37.651 423.006 36.6037 423.627 35.7815C424.246 34.9483 425.112 34.4 426.226 34.1367C426.579 34.0532 426.924 34.0123 427.262 34.0139C427.611 34.0129 427.932 34.0651 428.225 34.1706L428.53 36.4218C428.529 36.7132 428.396 36.8901 428.132 36.9527C427.977 36.9892 427.743 37.0096 427.43 37.0138C427.116 37.018 426.772 37.0645 426.397 37.1531C425.868 37.2783 425.412 37.4676 425.029 37.7211C424.658 37.9719 424.343 38.2909 424.085 38.6779C423.835 39.0514 423.632 39.4954 423.474 40.0102C423.325 40.5114 423.213 41.0735 423.139 41.6965L425.642 52.2847L422.681 52.9848L418.719 36.2257L420.406 35.8268C420.726 35.7511 420.961 35.7597 421.111 35.8523C421.261 35.9449 421.393 36.135 421.508 36.4223L422.309 38.9232Z" fill="white"/>
<path d="M438.158 34.5875C438.455 34.1102 438.78 33.6682 439.135 33.2613C439.49 32.8544 439.876 32.4939 440.293 32.1798C440.719 31.8525 441.178 31.5828 441.67 31.3706C442.172 31.1452 442.724 30.9801 443.327 30.8752C444.254 30.7139 445.096 30.7283 445.854 30.9185C446.621 31.0956 447.289 31.4281 447.857 31.9159C448.434 32.3906 448.914 33.003 449.298 33.753C449.682 34.503 449.957 35.3581 450.124 36.3183L452.004 47.1209L449.006 47.6427L447.126 36.8401C446.903 35.5561 446.434 34.6138 445.72 34.0134C445.015 33.3999 444.065 33.1971 442.87 33.405C441.988 33.5585 441.199 33.9145 440.502 34.4728C439.817 35.0293 439.213 35.7267 438.692 36.5652L440.867 49.0594L437.869 49.5812L434.916 32.6152L436.708 32.3033C437.132 32.2295 437.431 32.3903 437.603 32.786L438.158 34.5875Z" fill="white"/>
<path d="M459.724 28.8628L461.754 45.9636L458.75 46.3204L456.719 29.2196L459.724 28.8628ZM459.728 23.4183C459.762 23.7109 459.733 23.994 459.64 24.2675C459.557 24.5285 459.426 24.7723 459.248 24.9989C459.079 25.213 458.866 25.3923 458.61 25.5369C458.364 25.6802 458.095 25.7692 457.802 25.804C457.51 25.8387 457.227 25.8152 456.955 25.7334C456.694 25.6502 456.457 25.5244 456.243 25.3558C456.027 25.1759 455.849 24.9689 455.707 24.7346C455.563 24.4892 455.474 24.2201 455.44 23.9275C455.405 23.6349 455.428 23.3525 455.51 23.0803C455.591 22.7968 455.715 22.5481 455.884 22.334C456.051 22.1087 456.252 21.9251 456.486 21.7831C456.732 21.6399 457.001 21.5508 457.293 21.5161C457.586 21.4813 457.868 21.5049 458.141 21.5867C458.424 21.6671 458.673 21.7973 458.889 21.9772C459.114 22.1444 459.299 22.3564 459.444 22.6132C459.598 22.8573 459.693 23.1257 459.728 23.4183Z" fill="white"/>
<path d="M472.46 30.1624C472.807 29.72 473.178 29.3157 473.575 28.9495C473.972 28.5834 474.394 28.2666 474.843 27.9994C475.302 27.7201 475.787 27.5015 476.3 27.3437C476.823 27.1739 477.389 27.0694 478 27.0302C478.939 26.9699 479.775 27.0753 480.508 27.3462C481.251 27.6052 481.879 28.0078 482.391 28.5541C482.913 29.0884 483.325 29.7491 483.625 30.5361C483.926 31.3232 484.107 32.203 484.169 33.1757L484.872 44.1182L481.835 44.3131L481.133 33.3706C481.049 32.0699 480.685 31.0826 480.04 30.4085C479.405 29.7224 478.483 29.4182 477.273 29.4958C476.379 29.5532 475.556 29.8218 474.803 30.3016C474.062 30.7808 473.386 31.409 472.778 32.1862L473.59 44.8422L470.553 45.0371L469.45 27.8514L471.265 27.7349C471.695 27.7073 471.974 27.8995 472.103 28.3115L472.46 30.1624Z" fill="white"/>
<path d="M497.411 35.6088C498.023 35.6106 498.562 35.5271 499.027 35.3584C499.492 35.1897 499.884 34.9529 500.202 34.6478C500.52 34.3427 500.759 33.9807 500.919 33.5618C501.079 33.1316 501.16 32.6615 501.161 32.1515C501.164 31.0975 500.844 30.2579 500.199 29.6327C499.566 29.0076 498.644 28.6933 497.431 28.6898C496.207 28.6864 495.271 28.9954 494.623 29.6168C493.987 30.2384 493.667 31.0761 493.664 32.1301C493.663 32.6401 493.741 33.1107 493.898 33.5418C494.067 33.9616 494.31 34.325 494.626 34.6319C494.943 34.9388 495.333 35.1779 495.797 35.3492C496.261 35.5205 496.799 35.6071 497.411 35.6088ZM502.842 44.9743C502.843 44.555 502.725 44.2147 502.488 43.9533C502.25 43.692 501.928 43.487 501.52 43.3386C501.124 43.1901 500.66 43.0868 500.127 43.0286C499.595 42.9591 499.028 42.9065 498.428 42.8707C497.838 42.8351 497.238 42.7994 496.626 42.7636C496.014 42.7279 495.425 42.6695 494.858 42.5886C494.223 42.8814 493.7 43.2539 493.291 43.7061C492.893 44.147 492.693 44.6677 492.692 45.2684C492.691 45.6537 492.786 46.011 492.978 46.3402C493.181 46.6808 493.486 46.9707 493.893 47.2098C494.301 47.4603 494.81 47.6545 495.422 47.7922C496.044 47.9413 496.775 48.0171 497.614 48.0194C498.43 48.0218 499.161 47.9502 499.808 47.8047C500.454 47.6592 500.999 47.4511 501.441 47.1803C501.895 46.9096 502.242 46.5876 502.481 46.2143C502.72 45.841 502.84 45.4277 502.842 44.9743ZM505.968 27.5072L505.965 28.6292C505.964 29.0031 505.725 29.2405 505.249 29.3411L503.293 29.5905C503.677 30.3396 503.867 31.1675 503.864 32.0742C503.862 32.9128 503.695 33.6774 503.365 34.3678C503.046 35.0469 502.602 35.6293 502.034 36.115C501.466 36.6007 500.785 36.9728 499.991 37.2312C499.197 37.4896 498.335 37.6175 497.406 37.6148C496.601 37.6125 495.842 37.514 495.128 37.3193C494.765 37.545 494.487 37.7878 494.293 38.0479C494.1 38.2967 494.003 38.5515 494.002 38.8121C494.001 39.2201 494.164 39.5323 494.492 39.7485C494.832 39.9535 495.273 40.1021 495.817 40.1943C496.361 40.2865 496.978 40.3449 497.67 40.3696C498.372 40.3942 499.086 40.4359 499.811 40.4947C500.548 40.5421 501.262 40.6291 501.953 40.7558C502.655 40.8824 503.278 41.0882 503.821 41.3731C504.364 41.658 504.799 42.0502 505.127 42.5498C505.465 43.0495 505.633 43.6959 505.631 44.4893C505.629 45.2259 505.44 45.9394 505.064 46.6297C504.699 47.32 504.171 47.9305 503.478 48.4611C502.785 49.0032 501.934 49.4314 500.924 49.7459C499.926 50.0717 498.798 50.2328 497.54 50.2292C496.282 50.2257 495.183 50.0979 494.243 49.8458C493.303 49.5938 492.522 49.2573 491.9 48.8362C491.277 48.4151 490.808 47.9264 490.493 47.3702C490.188 46.8253 490.037 46.2525 490.039 45.6519C490.041 44.8019 490.309 44.083 490.844 43.4951C491.378 42.9073 492.11 42.4391 493.041 42.0904C492.531 41.8623 492.124 41.5608 491.819 41.1859C491.526 40.7997 491.38 40.2837 491.382 39.6377C491.382 39.3883 491.429 39.1335 491.52 38.873C491.611 38.6013 491.748 38.3354 491.93 38.0752C492.124 37.8038 492.357 37.5494 492.629 37.3122C492.902 37.075 493.22 36.8662 493.583 36.6859C492.735 36.2075 492.073 35.5766 491.6 34.7933C491.126 33.9986 490.89 33.0799 490.893 32.0372C490.896 31.1986 491.057 30.4397 491.376 29.7606C491.707 29.0702 492.162 28.4878 492.741 28.0135C493.32 27.5278 494.007 27.1558 494.801 26.8973C495.606 26.639 496.485 26.5111 497.437 26.5139C498.185 26.516 498.882 26.603 499.527 26.7748C500.173 26.9353 500.762 27.175 501.293 27.4938L505.968 27.5072Z" fill="white"/>
<path d="M529.863 24.0808L528.918 32.5453L538.87 33.6553L538.572 36.3247L528.621 35.2147L527.46 45.6222L524.182 45.2566L526.883 21.0457L541.801 22.7098L541.503 25.3792L529.863 24.0808Z" fill="white"/>
<path d="M562.056 33.5092L558.959 50.4493L557.186 50.1252C556.762 50.0477 556.533 49.7925 556.497 49.3597L556.596 47.4941C555.711 48.1734 554.766 48.6803 553.76 49.0148C552.756 49.3381 551.663 49.3918 550.481 49.1757C549.556 49.0065 548.764 48.7061 548.106 48.2746C547.461 47.834 546.949 47.2912 546.572 46.6461C546.194 46.001 545.955 45.2603 545.855 44.4239C545.765 43.5895 545.808 42.693 545.984 41.7342L547.959 30.9314L550.936 31.4757L548.96 42.2785C548.726 43.5606 548.834 44.6058 549.286 45.4142C549.748 46.2246 550.581 46.7399 551.785 46.9601C552.666 47.1211 553.523 47.0647 554.357 46.7908C555.203 46.5079 556.017 46.0576 556.799 45.4401L559.08 32.9649L562.056 33.5092Z" fill="white"/>
<path d="M570.61 53.5248C569.289 53.2006 568.362 52.582 567.827 51.669C567.304 50.7586 567.212 49.61 567.553 48.2232L570.065 37.987L568.051 37.4926C567.875 37.4494 567.738 37.3634 567.641 37.2346C567.547 37.0949 567.527 36.9149 567.581 36.6948L567.869 35.5226L570.695 35.8485L572.64 30.847C572.714 30.69 572.818 30.5755 572.952 30.5035C573.1 30.4231 573.268 30.4059 573.455 30.4518L574.941 30.8165L573.526 36.5785L578.364 37.7658L577.841 39.8956L573.004 38.7083L570.54 48.7464C570.367 49.4508 570.409 50.0155 570.667 50.4404C570.924 50.8654 571.323 51.144 571.862 51.2764C572.17 51.3521 572.444 51.3784 572.683 51.3553C572.936 51.324 573.157 51.2791 573.346 51.2206C573.535 51.162 573.695 51.1077 573.824 51.0577C573.966 50.9994 574.082 50.981 574.17 51.0026C574.324 51.0404 574.438 51.1678 574.514 51.3846L575.028 52.9987C574.405 53.3477 573.703 53.572 572.92 53.6715C572.139 53.7601 571.369 53.7112 570.61 53.5248Z" fill="white"/>
<path d="M599.236 43.6291L594.138 60.0784L592.417 59.545C592.006 59.4175 591.808 59.1367 591.824 58.7027L592.145 56.8622C591.186 57.4311 590.187 57.8216 589.148 58.0336C588.113 58.2349 587.021 58.1577 585.874 57.8021C584.975 57.5237 584.225 57.131 583.623 56.624C583.035 56.1096 582.592 55.5096 582.294 54.824C581.996 54.1385 581.847 53.3746 581.847 52.5322C581.858 51.6931 582.008 50.8081 582.296 49.8771L585.547 39.3872L588.437 40.2829L585.187 50.7728C584.801 52.0177 584.784 53.0684 585.135 53.9248C585.498 54.7846 586.264 55.3957 587.433 55.758C588.288 56.023 589.146 56.0693 590.006 55.8968C590.88 55.7169 591.742 55.367 592.592 54.8471L596.345 42.7334L599.236 43.6291Z" fill="white"/>
<path d="M608.031 50.5309C608.956 49.6198 609.905 48.9964 610.879 48.661C611.857 48.315 612.882 48.3438 613.953 48.7473C614.293 48.8752 614.602 49.0342 614.882 49.2243C615.172 49.4184 615.409 49.641 615.593 49.8919L614.589 51.9298C614.425 52.171 614.216 52.2436 613.962 52.1477C613.813 52.0918 613.608 51.9781 613.346 51.8066C613.083 51.635 612.772 51.4814 612.411 51.3455C611.902 51.1537 611.418 51.0561 610.959 51.0528C610.511 51.0534 610.072 51.1423 609.642 51.3194C609.226 51.4898 608.809 51.7445 608.391 52.0835C607.987 52.4158 607.581 52.8197 607.171 53.2953L603.335 63.4767L600.488 62.4038L606.559 46.2886L608.182 46.9C608.489 47.0158 608.68 47.1541 608.752 47.3147C608.825 47.4753 608.829 47.7068 608.763 48.0091L608.031 50.5309Z" fill="white"/>
<path d="M629.79 63.1769C630.076 62.5349 630.243 61.9084 630.292 61.2974C630.355 60.6806 630.296 60.1024 630.115 59.5626C629.948 59.0171 629.663 58.5302 629.258 58.1019C628.858 57.6633 628.342 57.3034 627.71 57.0224C626.385 56.4326 625.161 56.3532 624.039 56.7842C622.931 57.2094 621.981 58.0639 621.186 59.3478L629.79 63.1769ZM628.744 71.5496C628.218 71.8117 627.648 71.9921 627.033 72.0908C626.423 72.1791 625.8 72.1995 625.164 72.1521C624.538 72.1092 623.914 72.0053 623.293 71.8405C622.667 71.686 622.069 71.482 621.5 71.2286C620.412 70.7448 619.489 70.1166 618.728 69.3441C617.983 68.5659 617.431 67.6749 617.071 66.6713C616.726 65.662 616.6 64.5515 616.693 63.3398C616.785 62.1281 617.134 60.8441 617.737 59.4877C618.226 58.3901 618.847 57.4388 619.603 56.6336C620.368 55.8331 621.221 55.2265 622.162 54.8138C623.107 54.3908 624.122 54.1853 625.208 54.1973C626.299 54.199 627.414 54.4532 628.553 54.9601C629.496 55.3794 630.294 55.927 630.948 56.6027C631.618 57.2728 632.109 58.0371 632.421 58.8957C632.749 59.7485 632.882 60.6887 632.822 61.7163C632.766 62.7335 632.49 63.8013 631.992 64.9195C631.799 65.3544 631.623 65.6236 631.465 65.7271C631.308 65.8306 631.099 65.8247 630.84 65.7095L620.326 61.0303C619.914 62.0381 619.664 62.9626 619.575 63.8038C619.496 64.6495 619.564 65.4177 619.778 66.1082C619.996 66.7884 620.35 67.3863 620.84 67.9021C621.335 68.4075 621.955 68.8261 622.7 69.1579C623.394 69.4666 624.024 69.6539 624.59 69.7197C625.171 69.7798 625.684 69.7973 626.13 69.7722C626.575 69.7471 626.951 69.7099 627.259 69.6606C627.581 69.6055 627.83 69.6171 628.006 69.6955C628.234 69.7968 628.371 69.9632 628.417 70.1945L628.744 71.5496Z" fill="white"/>
<path d="M250.82 120.54V199.11L263.78 203.97V206.4H233V203.97L245.96 199.11V98.67L234.62 95.43V93H251.63C257.354 93 261.836 94.026 265.076 96.078C268.316 98.13 271.394 100.884 274.31 104.34L326.15 165.09V100.29L313.19 95.43V93H343.97V95.43L331.01 100.29V208.83H326.15L250.82 120.54Z" fill="#D7D300"/>
<path d="M386.128 208.83C376.516 208.83 369.118 206.778 363.934 202.674C358.75 198.57 356.158 193.332 356.158 186.96C356.158 182.748 357.076 178.59 358.912 174.486C359.668 172.542 360.64 170.76 361.828 169.14C366.256 168.06 371.062 167.088 376.246 166.224C387.91 164.28 398.224 163.092 407.188 162.66V157.8C407.188 145.812 405.73 137.55 402.814 133.014C399.898 128.478 395.416 126.21 389.368 126.21C387.1 126.21 385.156 126.48 383.536 127.02L381.268 127.83V152.13L379.162 152.616C377.434 152.832 375.976 152.94 374.788 152.94C371.116 152.94 368.146 151.86 365.878 149.7C363.718 147.432 362.638 144.462 362.638 140.79C362.638 135.822 365.122 131.61 370.09 128.154C375.166 124.698 382.672 122.97 392.608 122.97C401.032 122.97 408.268 124.482 414.316 127.506C420.472 130.422 425.116 134.526 428.248 139.818C431.488 145.002 433.108 150.996 433.108 157.8V201.54L442.828 203.97V206.4H428.248C421.768 206.4 416.746 204.402 413.182 200.406C411.67 198.786 410.482 196.734 409.618 194.25C408.106 196.95 406.324 199.38 404.272 201.54C399.412 206.4 393.364 208.83 386.128 208.83ZM392.608 203.16C396.604 203.16 400.222 201 403.462 196.68C404.65 195.06 405.892 192.9 407.188 190.2V166.71C402.22 166.71 397.468 166.98 392.932 167.52C389.584 167.952 387.316 168.222 386.128 168.33C385.588 169.518 385.048 171.138 384.508 173.19C383.428 177.294 382.888 181.344 382.888 185.34C382.888 191.388 383.806 195.87 385.642 198.786C387.478 201.702 389.8 203.16 392.608 203.16Z" fill="#D7D300"/>
<path d="M490.694 241.23C481.082 241.23 473.252 240.366 467.204 238.638C461.156 236.91 456.782 234.696 454.082 231.996C451.49 229.296 450.194 226.434 450.194 223.41C450.194 219.738 451.274 216.768 453.434 214.5C455.702 212.34 458.672 211.26 462.344 211.26C463.208 211.26 464.774 211.422 467.042 211.746L468.824 212.07V234.75C470.12 235.182 472.172 235.722 474.98 236.37C479.948 237.45 484.646 237.99 489.074 237.99C502.25 237.99 511.862 236.1 517.91 232.32C524.066 228.648 527.144 224.058 527.144 218.55C527.144 211.53 520.664 208.02 507.704 208.02H476.924C468.824 208.02 462.614 206.346 458.294 202.998C453.974 199.65 451.814 195.384 451.814 190.2C451.814 185.016 454.352 180.426 459.428 176.43C461.48 174.918 464.072 173.568 467.204 172.38C463.208 169.896 460.292 166.98 458.456 163.632C456.728 160.176 455.864 156.072 455.864 151.32C455.864 143.328 458.888 136.902 464.936 132.042C470.984 127.074 479.84 124.59 491.504 124.59C496.58 124.59 501.224 125.13 505.436 126.21C509.756 127.182 513.212 128.532 515.804 130.26C516.668 128.424 517.802 126.804 519.206 125.4C522.446 122.16 526.442 120.54 531.194 120.54C534.866 120.54 537.944 121.836 540.428 124.428C542.912 126.912 544.154 130.206 544.154 134.31C544.154 137.442 543.29 139.98 541.562 141.924C539.942 143.868 537.836 144.84 535.244 144.84C534.056 144.84 532.706 144.732 531.194 144.516L529.574 144.03V124.59C526.766 124.59 524.12 125.94 521.636 128.64C520.664 129.612 519.8 130.962 519.044 132.69C524.444 137.442 527.144 143.652 527.144 151.32C527.144 159.312 524.12 165.792 518.072 170.76C512.024 175.62 503.168 178.05 491.504 178.05C483.728 178.05 476.708 176.7 470.444 174L467.204 175.62C466.124 176.268 465.314 176.916 464.774 177.564C464.234 178.104 463.964 178.806 463.964 179.67C463.964 181.506 464.882 182.91 466.718 183.882C468.662 184.854 472.064 185.34 476.924 185.34H507.704C515.804 185.34 522.122 187.716 526.658 192.468C531.302 197.112 533.624 203.646 533.624 212.07C533.624 220.71 530.006 227.73 522.77 233.13C515.642 238.53 504.95 241.23 490.694 241.23ZM491.504 174.81C495.068 174.81 497.822 173.082 499.766 169.626C501.818 166.17 502.844 160.068 502.844 151.32C502.844 142.572 501.818 136.47 499.766 133.014C497.822 129.558 495.068 127.83 491.504 127.83C487.94 127.83 485.132 129.558 483.08 133.014C481.136 136.47 480.164 142.572 480.164 151.32C480.164 160.068 481.136 166.17 483.08 169.626C485.132 173.082 487.94 174.81 491.504 174.81Z" fill="#D7D300"/>
<path d="M577.396 208.83C567.784 208.83 560.386 206.778 555.202 202.674C550.018 198.57 547.426 193.332 547.426 186.96C547.426 182.748 548.344 178.59 550.18 174.486C550.936 172.542 551.908 170.76 553.096 169.14C557.524 168.06 562.33 167.088 567.514 166.224C579.178 164.28 589.492 163.092 598.456 162.66V157.8C598.456 145.812 596.998 137.55 594.082 133.014C591.166 128.478 586.684 126.21 580.636 126.21C578.368 126.21 576.424 126.48 574.804 127.02L572.536 127.83V152.13L570.43 152.616C568.702 152.832 567.244 152.94 566.056 152.94C562.384 152.94 559.414 151.86 557.146 149.7C554.986 147.432 553.906 144.462 553.906 140.79C553.906 135.822 556.39 131.61 561.358 128.154C566.434 124.698 573.94 122.97 583.876 122.97C592.3 122.97 599.536 124.482 605.584 127.506C611.74 130.422 616.384 134.526 619.516 139.818C622.756 145.002 624.376 150.996 624.376 157.8V201.54L634.096 203.97V206.4H619.516C613.036 206.4 608.014 204.402 604.45 200.406C602.938 198.786 601.75 196.734 600.886 194.25C599.374 196.95 597.592 199.38 595.54 201.54C590.68 206.4 584.632 208.83 577.396 208.83ZM583.876 203.16C587.872 203.16 591.49 201 594.73 196.68C595.918 195.06 597.16 192.9 598.456 190.2V166.71C593.488 166.71 588.736 166.98 584.2 167.52C580.852 167.952 578.584 168.222 577.396 168.33C576.856 169.518 576.316 171.138 575.776 173.19C574.696 177.294 574.156 181.344 574.156 185.34C574.156 191.388 575.074 195.87 576.91 198.786C578.746 201.702 581.068 203.16 583.876 203.16Z" fill="#D7D300"/>
<path d="M721.67 208.83C714.974 208.83 708.98 207.372 703.688 204.456C701.096 203.052 698.99 201.54 697.37 199.92C695.642 202.296 693.752 204.132 691.7 205.428C690.728 206.076 689.648 206.67 688.46 207.21H684.41V179.67H690.89C692.294 184.206 694.346 188.418 697.046 192.306C702.77 200.622 709.898 204.78 718.43 204.78C722.966 204.78 726.368 203.7 728.636 201.54C731.012 199.272 732.2 196.032 732.2 191.82C732.2 188.256 730.58 185.286 727.34 182.91C724.208 180.426 719.24 177.402 712.436 173.838C706.604 170.922 701.852 168.33 698.18 166.062C694.616 163.686 691.538 160.77 688.946 157.314C686.462 153.75 685.22 149.592 685.22 144.84C685.22 138.36 687.974 133.122 693.482 129.126C699.098 125.022 707.684 122.97 719.24 122.97C724.964 122.97 730.256 124.482 735.116 127.506C737.492 128.91 739.544 130.368 741.272 131.88C742.676 129.936 744.567 128.1 746.943 126.372C748.779 125.292 749.858 124.698 750.182 124.59H754.232V152.13H747.753C746.133 147.486 744.134 143.328 741.758 139.656C736.358 131.232 729.932 127.02 722.48 127.02C719.564 127.02 717.08 128.1 715.028 130.26C712.976 132.42 711.95 135.12 711.95 138.36C711.95 142.464 713.678 145.92 717.134 148.728C720.59 151.428 725.828 154.56 732.848 158.124C738.572 161.04 743.108 163.632 746.456 165.9C749.912 168.06 752.828 170.76 755.204 174C757.688 177.24 758.93 181.02 758.93 185.34C758.93 201 746.51 208.83 721.67 208.83Z" fill="#D7D300"/>
<path d="M666.685 126H659.685C659.685 126 656.138 104.281 653.185 90.5C651.685 83.5 659.685 80 663.185 80C666.685 80 674.752 82.5 673.685 90.5C671.818 104.507 666.685 126 666.685 126Z" fill="#D7D300"/>
<path fill-rule="evenodd" clip-rule="evenodd" d="M772.219 4.87618C782.554 13.6084 782.152 31.0794 771.32 43.8987C760.489 56.718 743.33 60.0312 732.995 51.299C722.661 42.5668 723.063 25.0958 733.894 12.2765C744.726 -0.542781 761.884 -3.85603 772.219 4.87618ZM764.592 15.7917C767.524 18.4331 771.099 19.2438 772.578 17.6025C774.056 15.9612 772.878 12.4893 769.946 9.84786C767.014 7.20642 763.438 6.39567 761.96 8.037C760.481 9.67834 761.659 13.1502 764.592 15.7917Z" fill="#FA0EEC"/>
<path d="M685.253 95.7158L729 46.5L734 52L686.79 97.2221C686.604 97.4005 686.356 97.5 686.098 97.5H685.2C685.09 97.5 685 97.4105 685 97.3V96.3802C685 96.1353 685.09 95.8989 685.253 95.7158Z" fill="#E3E2B3"/>
<path d="M199.799 126C211.056 114.542 218 98.8318 218 81.5C218 46.4299 189.57 18 154.5 18C119.43 18 91 46.4299 91 81.5C91 98.8318 97.9437 114.542 109.201 126C120.722 114.273 136.762 107 154.5 107C172.238 107 188.278 114.273 199.799 126Z" fill="#4ED8DA"/>
<path d="M127 81.5C127 116.57 98.5701 145 63.5 145C28.4299 145 0 116.57 0 81.5C0 46.4299 28.4299 18 63.5 18C98.5701 18 127 46.4299 127 81.5Z" fill="#4A3D8C"/>
<path d="M127 170.5C127 205.57 98.5701 234 63.5 234C28.4299 234 0 205.57 0 170.5C0 135.43 28.4299 107 63.5 107C98.5701 107 127 135.43 127 170.5Z" fill="#FD8D8C"/>
<path d="M91 170.5C91 135.43 119.43 107 154.5 107C189.57 107 218 135.43 218 170.5C218 205.57 189.57 234 154.5 234C119.43 234 91 205.57 91 170.5Z" fill="#FFE53C"/>
<path d="M199.799 126C188.278 114.273 172.238 107 154.5 107C136.762 107 120.722 114.273 109.201 126C120.722 137.727 136.762 145 154.5 145C172.238 145 188.278 137.727 199.799 126Z" fill="#4ED8DA"/>
</svg>
